<?xml version="1.0" encoding="UTF-8" standalone="no"?><!DOCTYPE svg PUBLIC "-//W3C//DTD SVG 1.1//EN" "http://www.w3.org/Graphics/SVG/1.1/DTD/svg11.dtd"><svg width="100%" height="100%" viewBox="0 0 13 13" version="1.1" xmlns="http://www.w3.org/2000/svg" xmlns:xlink="http://www.w3.org/1999/xlink" xml:space="preserve" xmlns:serif="http://www.serif.com/" style="fill-rule:evenodd;clip-rule:evenodd;stroke-linejoin:round;stroke-miterlimit:2;"><rect id="hold" x="0.104" y="0.176" width="12.104" height="12.104" style="fill:none;"/><rect x="1.774" y="2.583" width="0.183" height="8.581"/><rect x="5.947" y="1.105" width="0.235" height="6.469"/><path d="M3.442,4.786l-0.164,0.163l2.78,2.78l0.164,-0.163l-2.78,-2.78Z"/><path d="M8.852,4.949l-0.164,-0.163l-2.78,2.78l0.163,0.163l2.781,-2.78Z"/><rect x="10.355" y="2.583" width="0.183" height="8.581"/><path d="M1.774,11.073l0,0.183l8.765,0l-0,-0.183l-8.765,-0Z"/><path d="M1.774,2.49l0,0.187l3.856,0l-0,-0.187l-3.856,-0Z"/><path d="M6.475,2.49l0,0.191l4.064,0l-0,-0.191l-4.064,-0Z"/></svg>