<?xml version="1.0" encoding="UTF-8" standalone="no"?><!DOCTYPE svg PUBLIC "-//W3C//DTD SVG 1.1//EN" "http://www.w3.org/Graphics/SVG/1.1/DTD/svg11.dtd"><svg width="100%" height="100%" viewBox="0 0 13 13" version="1.1" xmlns="http://www.w3.org/2000/svg" xmlns:xlink="http://www.w3.org/1999/xlink" xml:space="preserve" xmlns:serif="http://www.serif.com/" style="fill-rule:evenodd;clip-rule:evenodd;stroke-linejoin:round;stroke-miterlimit:2;"><rect id="new" x="0.209" y="0.176" width="12.104" height="12.104" style="fill:none;"/><rect x="6.169" y="2.508" width="0.183" height="7.439"/><path d="M9.981,6.32l-0,-0.184l-7.44,0l0,0.184l7.44,-0Z"/><path d="M6.261,1.603c2.553,-0 4.625,2.072 4.625,4.625c0,2.553 -2.072,4.625 -4.625,4.625c-2.553,-0 -4.625,-2.072 -4.625,-4.625c-0,-2.553 2.072,-4.625 4.625,-4.625Zm0,0.185c2.451,-0 4.44,1.989 4.44,4.44c0,2.45 -1.989,4.44 -4.44,4.44c-2.45,-0 -4.44,-1.99 -4.44,-4.44c-0,-2.451 1.99,-4.44 4.44,-4.44Z"/></svg>