<?xml version="1.0" encoding="UTF-8" standalone="no"?><!DOCTYPE svg PUBLIC "-//W3C//DTD SVG 1.1//EN" "http://www.w3.org/Graphics/SVG/1.1/DTD/svg11.dtd"><svg width="100%" height="100%" viewBox="0 0 13 13" version="1.1" xmlns="http://www.w3.org/2000/svg" xmlns:xlink="http://www.w3.org/1999/xlink" xml:space="preserve" xmlns:serif="http://www.serif.com/" style="fill-rule:evenodd;clip-rule:evenodd;stroke-linejoin:round;stroke-miterlimit:2;"><rect id="roll" x="0" y="0.176" width="12.104" height="12.104" style="fill:none;"/><g><path d="M10.767,6.228c-0,-2.604 -2.111,-4.714 -4.715,-4.714c-2.16,-0 -4.044,1.468 -4.571,3.562l0.225,0.057c0.502,-1.991 2.293,-3.387 4.346,-3.387c2.475,0 4.482,2.007 4.482,4.482l0.233,-0Z"/><path d="M10.812,6.177c0,-0 -0.852,-0.852 -1.102,-1.103c-0.038,-0.037 -0.099,-0.037 -0.136,0c-0.01,0.01 -0.02,0.02 -0.03,0.03c-0.038,0.038 -0.038,0.099 0,0.136c0.206,0.206 0.819,0.819 1.03,1.03c0.019,0.02 0.045,0.03 0.073,0.03c0.027,0 0.053,-0.01 0.072,-0.03c0.045,-0.044 0.093,-0.093 0.093,-0.093Z"/><path d="M10.487,6.177c0,-0 0.853,-0.852 1.103,-1.103c0.037,-0.037 0.099,-0.037 0.136,0c0.01,0.01 0.02,0.02 0.03,0.03c0.037,0.038 0.037,0.099 -0,0.136c-0.206,0.206 -0.819,0.819 -1.03,1.03c-0.019,0.02 -0.045,0.03 -0.073,0.03c-0.027,0 -0.053,-0.01 -0.072,-0.03c-0.045,-0.044 -0.094,-0.093 -0.094,-0.093Z"/></g><g><path d="M1.473,6.228c0,2.604 2.111,4.714 4.715,4.714c2.16,0 4.043,-1.468 4.571,-3.562l-0.226,-0.057c-0.501,1.991 -2.292,3.386 -4.345,3.386c-2.475,0 -4.482,-2.006 -4.482,-4.481l-0.233,-0Z"/><path d="M1.427,6.279c0,-0 0.853,0.852 1.103,1.102c0.037,0.038 0.098,0.038 0.136,0c0.01,-0.01 0.02,-0.02 0.03,-0.029c0.037,-0.038 0.037,-0.099 -0,-0.137c-0.206,-0.205 -0.819,-0.818 -1.03,-1.03c-0.019,-0.019 -0.045,-0.03 -0.073,-0.03c-0.027,0 -0.053,0.011 -0.072,0.03c-0.045,0.045 -0.094,0.094 -0.094,0.094Z"/><path d="M1.752,6.279c0,-0 -0.852,0.852 -1.102,1.102c-0.038,0.038 -0.099,0.038 -0.136,0c-0.01,-0.01 -0.02,-0.02 -0.03,-0.029c-0.038,-0.038 -0.038,-0.099 0,-0.137c0.206,-0.205 0.819,-0.818 1.03,-1.03c0.019,-0.019 0.045,-0.03 0.072,-0.03c0.028,0 0.054,0.011 0.073,0.03c0.045,0.045 0.093,0.094 0.093,0.094Z"/></g></svg>